<?xml version="1.0" standalone="no"?>
<!DOCTYPE svg PUBLIC "-//W3C//DTD SVG 20010904//EN"
 "http://www.w3.org/TR/2001/REC-SVG-20010904/DTD/svg10.dtd">
<svg version="1.0" xmlns="http://www.w3.org/2000/svg"
 width="128.000000pt" height="128.000000pt" viewBox="0 0 128.000000 128.000000"
 preserveAspectRatio="xMidYMid meet">

<g transform="translate(0.000000,128.000000) scale(0.100000,-0.100000)"
fill="#000000" stroke="none">
<path d="M492 1224 c3 -17 18 -19 183 -24 155 -5 188 -9 237 -29 167 -65 286
-201 320 -363 11 -52 10 -59 -7 -78 -18 -20 -27 -20 -586 -20 -623 0 -599 -2
-599 59 0 37 34 134 66 188 56 97 179 190 292 224 39 11 54 31 33 44 -16 9
-140 -41 -195 -79 -105 -72 -180 -175 -217 -299 -23 -75 -20 -128 9 -149 26
-19 23 -76 -5 -104 -29 -29 -29 -71 -2 -100 31 -34 32 -110 2 -140 -28 -28
-29 -63 -3 -97 12 -15 20 -40 20 -65 0 -44 28 -93 73 -126 28 -21 37 -21 527
-21 488 0 499 0 526 21 45 33 66 69 72 120 2 27 13 60 23 73 25 32 24 67 -4
95 -30 30 -29 102 2 142 27 35 27 69 -1 98 -29 28 -32 85 -6 104 29 21 32 74
9 149 -53 171 -172 298 -341 362 -58 22 -84 25 -248 29 -175 4 -184 3 -180
-14z m706 -576 c-3 -22 -8 -23 -123 -28 -98 -4 -120 -8 -120 -20 0 -12 22 -15
129 -18 75 -1 135 -7 143 -14 21 -17 15 -45 -16 -67 -34 -25 -69 -27 -97 -6
-25 19 -93 19 -118 0 -25 -19 -65 -19 -90 0 -25 19 -83 19 -116 0 -32 -18 -70
-18 -94 0 -11 8 -36 15 -56 15 -20 0 -45 -7 -56 -15 -24 -18 -62 -18 -94 0
-33 19 -91 19 -116 0 -24 -18 -65 -19 -88 -2 -12 9 -17 23 -14 47 l3 35 315 5
c271 4 315 7 315 20 0 13 -43 15 -313 18 l-313 2 -24 -24 c-22 -22 -25 -34
-25 -91 0 -58 -2 -66 -17 -63 -15 3 -19 17 -23 75 -3 40 -10 77 -17 84 -7 7
-29 15 -50 18 -29 5 -39 11 -41 29 l-3 22 561 0 561 0 -3 -22z m-1048 -88 c6
-12 10 -33 8 -48 -2 -21 -9 -28 -31 -30 -36 -4 -87 32 -87 63 0 27 11 33 62
34 28 1 40 -4 48 -19z m325 -100 c39 -26 74 -25 125 1 l40 21 40 -21 c51 -27
84 -27 127 0 19 12 36 19 39 16 7 -6 -192 -187 -206 -187 -10 0 -210 177 -210
186 0 9 16 3 45 -16z m622 -1 c23 -14 45 -20 68 -17 30 3 35 1 35 -17 0 -42
-15 -45 -209 -45 l-186 1 45 38 c34 30 49 37 62 30 26 -14 59 -10 98 11 44 24
46 24 87 -1z m-739 -13 c26 10 33 7 73 -27 l44 -38 -186 -1 c-194 0 -209 3
-209 45 0 18 5 20 38 17 20 -3 45 -13 55 -23 10 -11 27 -19 39 -19 24 0 58 27
58 46 0 10 7 10 30 1 22 -8 38 -8 58 -1z m203 -143 l40 -37 -23 -12 c-31 -18
-55 -17 -88 2 -27 16 -60 14 -60 -4 0 -11 86 -52 111 -52 11 0 38 10 60 23
l39 22 39 -22 c49 -28 71 -29 123 -2 l42 21 43 -21 c54 -26 73 -26 125 0 l41
21 48 -22 c28 -13 58 -21 73 -18 23 5 26 2 26 -24 0 -21 -11 -41 -34 -64 l-34
-34 -492 0 -492 0 -34 34 c-23 23 -34 43 -34 64 0 26 3 29 26 24 15 -3 45 5
73 18 l48 22 41 -21 c44 -22 78 -26 101 -12 24 16 6 38 -27 33 -18 -2 -40 3
-56 13 -32 21 -88 22 -118 1 -31 -22 -64 -20 -99 5 -27 19 -39 56 -22 72 3 4
111 7 240 7 l233 0 41 -37z m677 6 c2 -20 -4 -32 -26 -48 -36 -25 -69 -27
-100 -5 -30 21 -86 21 -117 0 -13 -9 -34 -16 -45 -16 -11 0 -32 7 -45 16 -31
21 -87 21 -117 0 -27 -19 -55 -20 -86 -2 l-23 12 41 37 40 37 238 -2 237 -3 3
-26z"/>
<path d="M315 1020 c-23 -24 -26 -33 -17 -42 10 -10 19 -6 43 19 18 17 28 36
25 42 -11 17 -20 14 -51 -19z"/>
<path d="M625 1020 c-23 -24 -26 -33 -17 -42 10 -10 19 -6 43 19 18 17 28 36
25 42 -11 17 -20 14 -51 -19z"/>
<path d="M935 1020 c-23 -24 -26 -33 -17 -42 10 -10 19 -6 43 19 18 17 28 36
25 42 -11 17 -20 14 -51 -19z"/>
<path d="M454 885 c-7 -17 10 -41 38 -56 29 -16 35 17 8 47 -27 28 -38 30 -46
9z"/>
<path d="M764 885 c-7 -17 10 -41 38 -56 29 -16 35 17 8 47 -27 28 -38 30 -46
9z"/>
</g>
</svg>
