<?xml version="1.0" standalone="no"?>
<!DOCTYPE svg PUBLIC "-//W3C//DTD SVG 20010904//EN"
 "http://www.w3.org/TR/2001/REC-SVG-20010904/DTD/svg10.dtd">
<svg version="1.0" xmlns="http://www.w3.org/2000/svg"
 width="128.000000pt" height="128.000000pt" viewBox="0 0 128.000000 128.000000"
 preserveAspectRatio="xMidYMid meet">

<g transform="translate(0.000000,128.000000) scale(0.100000,-0.100000)"
fill="#000000" stroke="none">
<path d="M480 1264 c-90 -24 -175 -71 -237 -132 -89 -88 -135 -179 -157 -312
-10 -56 -15 -67 -39 -78 -61 -29 -59 -106 4 -119 44 -9 56 -45 28 -89 -23 -38
-20 -92 6 -114 10 -8 11 -18 4 -36 -9 -26 -3 -70 13 -91 7 -8 4 -20 -6 -35
-24 -34 -21 -124 7 -178 42 -82 30 -80 537 -80 507 0 495 -2 538 80 27 54 30
144 6 178 -10 15 -13 27 -6 35 16 21 22 65 13 91 -7 18 -6 28 4 36 27 22 29
76 6 116 -19 31 -20 41 -11 70 9 25 17 34 34 34 13 0 31 9 41 20 25 28 13 62
-29 82 -31 15 -35 22 -41 70 -28 223 -181 397 -400 453 -75 19 -241 19 -315
-1z m344 -49 c99 -31 191 -101 251 -191 42 -62 75 -156 75 -210 0 -31 -2 -34
-31 -34 -24 0 -30 -4 -27 -17 2 -13 15 -19 43 -21 22 -2 49 -12 60 -21 11 -10
27 -21 35 -24 12 -4 11 -6 -4 -12 -10 -5 -41 -2 -69 5 -48 12 -52 12 -65 -9
-18 -26 -44 -27 -67 -1 -13 15 -31 20 -66 20 -39 0 -49 -4 -54 -20 -3 -11 -15
-20 -25 -20 -11 0 -24 9 -30 20 -8 14 -21 20 -46 20 -30 0 -37 -4 -45 -30 -12
-34 -39 -41 -39 -10 0 16 -7 20 -34 20 -26 0 -36 5 -41 20 -5 17 -15 20 -65
20 -56 0 -58 -1 -69 -30 -12 -35 -46 -41 -56 -10 -9 28 -89 29 -104 1 -7 -11
-25 -21 -48 -24 -21 -3 -50 -9 -65 -12 -27 -7 -28 -6 -28 29 0 20 -2 36 -5 36
-3 0 -33 -11 -67 -25 -34 -14 -67 -25 -74 -25 -28 0 -24 23 7 50 l34 29 473 1
c465 0 472 0 472 20 0 20 -7 20 -460 20 l-460 0 0 34 c0 54 33 148 74 209 77
115 191 188 331 211 55 8 239 -3 289 -19z m-209 -555 c4 -14 15 -20 36 -20 22
0 29 -5 29 -20 0 -17 7 -20 49 -20 45 0 50 2 60 30 12 35 27 39 36 10 5 -16
15 -20 50 -20 34 0 47 5 55 20 6 11 21 20 34 20 13 0 31 -9 41 -20 23 -26 92
-28 110 -3 7 9 19 14 28 10 14 -5 14 -11 6 -37 l-11 -30 -499 0 -499 0 -6 26
c-4 17 -2 29 7 35 23 14 29 11 29 -17 0 -25 1 -26 52 -20 130 14 147 18 153
37 8 25 41 24 55 -1 8 -15 21 -20 56 -20 41 0 46 3 55 30 9 24 17 30 39 30 20
0 31 -6 35 -20z m-305 -140 c0 -13 7 -20 20 -20 13 0 20 7 20 20 0 20 5 20
238 18 l237 -3 3 -123 c3 -123 -5 -162 -33 -162 -25 0 -35 36 -35 121 0 95
-13 119 -65 119 -65 0 -69 -10 -75 -192 l-5 -163 -25 0 -25 0 -5 126 c-6 144
-17 169 -75 169 -50 0 -68 -28 -75 -118 -4 -65 -8 -77 -24 -80 -29 -6 -36 16
-36 121 0 90 -1 97 -20 97 -11 0 -20 -7 -20 -15 0 -22 -16 -18 -38 10 l-19 24
-19 -20 c-42 -47 -108 -42 -121 10 -18 66 2 81 108 81 82 0 89 -2 89 -20z
m856 -9 c26 -50 -27 -112 -78 -92 -13 5 -31 18 -42 29 l-18 21 -22 -26 c-49
-56 -136 -16 -136 63 l0 35 142 -3 c139 -3 143 -4 154 -27z m-476 -76 c-7 -8
-16 -15 -21 -15 -5 0 -6 7 -3 15 4 8 13 15 21 15 13 0 13 -3 3 -15z m-410 -50
c26 -13 30 -21 30 -56 l0 -40 -76 3 c-69 3 -79 6 -96 28 -28 38 -16 57 38 57
24 0 50 5 56 11 15 15 13 15 48 -3z m440 -40 c0 -54 0 -55 -30 -55 -28 0 -30
2 -30 40 0 33 5 42 28 54 15 8 28 15 30 16 1 0 2 -25 2 -55z m272 38 c31 13
45 14 55 5 8 -6 34 -11 58 -11 53 0 65 -19 37 -57 -19 -24 -23 -25 -146 -28
l-126 -3 0 55 0 54 40 -15 c37 -15 44 -15 82 0z m-482 -12 c5 -11 10 -33 10
-50 0 -29 -3 -31 -35 -31 -32 0 -35 2 -35 31 0 37 16 69 35 69 8 0 19 -9 25
-19z m-200 -129 c0 -21 43 -52 72 -52 34 0 68 24 68 47 0 10 10 13 33 11 32
-3 32 -3 35 -64 3 -71 23 -97 74 -97 47 0 68 32 68 104 l0 59 33 0 c21 0 41
-8 52 -20 11 -12 31 -20 50 -20 19 0 39 8 50 20 16 18 31 20 155 20 92 0 140
-4 148 -12 15 -15 15 -82 -1 -128 -8 -24 -23 -41 -47 -52 -32 -16 -75 -18
-460 -18 -385 0 -428 2 -460 18 -24 11 -39 28 -47 52 -16 46 -16 113 -1 128
14 14 178 17 178 4z"/>
<path d="M600 1160 c0 -13 7 -20 20 -20 13 0 20 7 20 20 0 13 -7 20 -20 20
-13 0 -20 -7 -20 -20z"/>
<path d="M414 1145 c-7 -18 3 -35 22 -35 8 0 14 10 14 25 0 27 -27 35 -36 10z"/>
<path d="M742 1093 c5 -26 38 -29 38 -4 0 15 -6 21 -21 21 -14 0 -19 -5 -17
-17z"/>
<path d="M910 1070 c0 -13 7 -20 20 -20 13 0 20 7 20 20 0 13 -7 20 -20 20
-13 0 -20 -7 -20 -20z"/>
<path d="M472 1053 c2 -10 12 -18 23 -18 11 0 21 8 23 18 3 13 -3 17 -23 17
-20 0 -26 -4 -23 -17z"/>
<path d="M310 1010 c0 -13 7 -20 20 -20 13 0 20 7 20 20 0 13 -7 20 -20 20
-13 0 -20 -7 -20 -20z"/>
<path d="M640 990 c0 -13 7 -20 20 -20 13 0 20 7 20 20 0 13 -7 20 -20 20 -13
0 -20 -7 -20 -20z"/>
</g>
</svg>
