<?xml version="1.0" standalone="no"?>
<!DOCTYPE svg PUBLIC "-//W3C//DTD SVG 20010904//EN"
 "http://www.w3.org/TR/2001/REC-SVG-20010904/DTD/svg10.dtd">
<svg version="1.0" xmlns="http://www.w3.org/2000/svg"
 width="128.000000pt" height="128.000000pt" viewBox="0 0 128.000000 128.000000"
 preserveAspectRatio="xMidYMid meet">

<g transform="translate(0.000000,128.000000) scale(0.100000,-0.100000)"
fill="#000000" stroke="none">
<path d="M460 1249 c-178 -45 -326 -153 -392 -286 -26 -52 -31 -77 -34 -152
-4 -83 -3 -91 21 -119 34 -40 34 -94 2 -109 -27 -13 -57 -69 -57 -108 0 -14 8
-40 17 -58 9 -18 18 -50 19 -72 6 -93 26 -219 39 -245 20 -39 70 -78 108 -85
18 -3 235 -5 484 -3 440 3 452 4 480 24 49 36 71 79 78 152 3 37 13 80 22 96
10 18 14 42 10 68 -3 23 0 53 9 73 8 19 14 44 14 56 0 34 -31 90 -57 102 -35
16 -32 67 7 105 33 33 34 44 20 147 -28 198 -193 355 -435 415 -104 26 -252
25 -355 -1z m331 -44 c84 -18 195 -69 257 -117 60 -47 118 -130 139 -195 17
-53 17 -56 -2 -69 -15 -12 -111 -14 -545 -14 -434 0 -530 2 -545 14 -19 13
-19 16 -2 69 34 108 123 200 253 263 129 62 296 80 445 49z m419 -456 c0 -32
-26 -41 -90 -34 -53 6 -65 4 -106 -19 -58 -32 -90 -33 -145 -1 -56 31 -92 31
-151 0 -26 -14 -58 -25 -72 -25 -14 0 -46 11 -72 25 -26 14 -59 25 -74 25 -15
0 -48 -11 -74 -25 -59 -31 -85 -31 -144 0 -41 22 -55 24 -111 18 -55 -5 -66
-4 -78 12 -7 11 -13 24 -13 29 0 8 174 11 565 11 515 0 565 -1 565 -16z m-940
-104 c27 -14 65 -25 85 -25 20 0 57 11 83 25 26 14 54 25 62 25 8 0 36 -11 62
-25 26 -14 63 -25 83 -25 20 0 58 11 85 25 27 14 56 25 63 25 8 0 35 -11 61
-25 61 -32 111 -32 175 1 42 22 57 25 84 18 22 -7 33 -17 35 -32 l3 -22 -511
0 -511 0 3 22 c2 16 12 25 33 29 49 11 54 10 105 -16z m-10 -151 c91 -92 92
-92 143 -45 l44 40 43 -44 44 -45 -217 0 -218 0 -24 25 c-59 58 -12 133 85
134 31 1 44 -8 100 -65z m132 49 c18 -16 18 -17 -4 -40 -12 -13 -26 -23 -32
-23 -12 0 -76 60 -76 72 0 16 93 8 112 -9z m361 -85 l-103 -103 -95 95 c-52
52 -95 98 -95 102 0 5 89 8 197 8 l198 0 -102 -102z m423 92 c57 -22 72 -83
29 -125 -24 -25 -25 -25 -232 -25 l-208 0 80 80 80 80 112 0 c61 0 124 -5 139
-10z m34 -214 c0 -39 -23 -49 -90 -42 -51 6 -65 4 -109 -19 -63 -31 -88 -31
-142 0 -56 31 -94 31 -153 0 -59 -31 -90 -31 -141 0 -51 32 -98 32 -154 0 -54
-31 -79 -31 -140 0 -43 23 -56 25 -114 19 -59 -6 -66 -5 -76 14 -6 11 -11 25
-11 31 0 8 81 11 253 11 l254 0 23 -25 c30 -32 50 -32 80 0 l23 25 241 3 c133
1 244 3 249 5 4 1 7 -9 7 -22z m-940 -111 c63 -32 113 -32 165 0 50 31 69 31
127 0 26 -14 63 -25 83 -25 20 0 57 11 83 25 58 31 71 31 130 0 59 -32 105
-32 165 0 40 22 55 25 97 19 28 -4 53 -11 56 -15 3 -5 2 -30 -2 -55 -5 -33
-16 -55 -41 -80 l-34 -34 -459 0 -459 0 -34 34 c-22 22 -36 47 -40 72 -12 70
-11 73 36 77 23 2 50 4 60 5 10 1 40 -9 67 -23z"/>
<path d="M612 1167 c-15 -17 1 -42 23 -33 18 6 17 37 -1 43 -6 2 -16 -2 -22
-10z"/>
<path d="M722 1139 c2 -17 18 -26 78 -43 132 -39 216 -96 267 -183 13 -23 31
-43 39 -43 26 0 26 29 1 73 -51 87 -160 163 -286 201 -77 23 -103 21 -99 -5z"/>
<path d="M373 1034 c-8 -22 18 -37 36 -20 7 8 10 19 7 25 -10 16 -36 13 -43
-5z"/>
<path d="M567 1036 c-8 -19 15 -37 32 -26 17 10 7 40 -13 40 -7 0 -16 -6 -19
-14z"/>
<path d="M254 945 c-4 -9 -2 -21 4 -27 15 -15 44 -1 40 19 -4 23 -36 29 -44 8z"/>
<path d="M504 945 c-4 -9 -2 -21 4 -27 15 -15 44 -1 40 19 -4 23 -36 29 -44 8z"/>
<path d="M682 918 c2 -13 10 -23 18 -23 8 0 16 10 18 23 3 17 -2 22 -18 22
-16 0 -21 -5 -18 -22z"/>
</g>
</svg>
